<?xml version="1.0" encoding="UTF-8" ?>
<!DOCTYPE svg PUBLIC "-//W3C//DTD SVG 1.1//EN" "http://www.w3.org/Graphics/SVG/1.1/DTD/svg11.dtd">
<svg width="500pt" height="316pt" viewBox="0 0 500 316" version="1.1" xmlns="http://www.w3.org/2000/svg">
<g id="#4aba6dff">
<path fill="#4aba6d" opacity="1.00" d=" M 74.95 1.65 C 85.28 0.86 95.65 1.49 105.99 1.24 C 107.99 1.22 110.00 1.22 112.01 1.24 C 126.67 1.28 141.34 1.33 156.00 1.21 C 160.01 1.30 164.03 1.27 168.05 1.27 C 169.35 1.26 170.65 1.26 171.95 1.27 C 181.63 1.24 191.32 1.36 201.00 1.21 C 268.00 1.33 335.00 1.31 402.00 1.22 C 409.96 1.57 417.99 0.67 425.90 1.93 C 426.90 2.33 427.91 2.73 428.93 3.12 C 437.66 6.66 444.89 13.93 448.08 22.83 C 449.83 27.33 449.84 32.23 450.26 36.98 C 450.34 101.43 450.20 165.88 450.33 230.32 C 462.89 230.30 475.45 230.31 488.02 230.31 C 493.75 229.82 499.13 235.27 498.58 241.00 C 498.53 262.34 498.60 283.68 498.55 305.01 C 498.63 310.45 493.29 314.87 488.03 314.66 C 329.35 314.66 170.66 314.67 11.98 314.66 C 6.74 314.88 1.42 310.48 1.45 305.08 C 1.40 283.71 1.47 262.34 1.42 240.97 C 0.89 235.26 6.25 229.81 11.97 230.31 C 24.54 230.30 37.10 230.30 49.67 230.32 C 49.80 165.88 49.66 101.43 49.74 36.99 C 49.80 35.68 49.92 34.38 50.12 33.09 C 49.96 20.33 58.61 8.85 69.86 3.48 C 70.16 3.46 70.77 3.41 71.08 3.38 C 72.37 2.80 73.66 2.23 74.95 1.65 M 84.01 23.05 C 77.41 20.53 70.92 27.65 71.20 34.03 C 71.19 99.46 71.13 164.89 71.23 230.32 C 190.40 230.31 309.57 230.29 428.74 230.33 C 428.91 164.89 428.80 99.44 428.79 33.99 C 429.05 29.18 425.65 25.30 421.88 22.82 C 419.73 22.52 417.56 22.32 415.42 22.07 C 416.67 21.90 417.92 21.72 419.18 21.54 C 408.47 21.88 397.74 21.62 387.03 21.70 C 285.29 21.78 183.56 21.54 81.83 21.82 L 81.27 20.60 C 81.20 22.12 82.91 22.55 84.01 23.05 M 22.38 251.32 C 22.39 265.40 22.38 279.48 22.39 293.55 C 174.13 293.55 325.87 293.56 477.61 293.55 C 477.62 279.47 477.61 265.40 477.61 251.33 C 325.87 251.30 174.13 251.30 22.38 251.32 Z" />
<path fill="#4aba6d" opacity="1.00" d=" M 340.96 53.69 C 358.74 53.48 376.53 53.74 394.31 53.56 C 396.66 54.82 399.25 56.35 399.95 59.15 C 401.94 64.25 397.19 69.98 391.89 69.59 C 375.58 69.62 359.27 69.61 342.96 69.59 C 337.19 69.97 333.34 62.94 336.03 58.06 C 337.20 56.14 339.18 54.97 340.96 53.69 Z" />
<path fill="#4aba6d" opacity="1.00" d=" M 168.31 74.00 C 167.71 69.88 171.19 67.00 174.64 65.67 C 185.85 65.84 197.07 65.80 208.28 65.69 C 210.89 67.01 213.60 68.81 214.11 71.93 C 214.80 77.01 214.19 82.17 214.49 87.29 C 252.11 87.38 289.74 87.05 327.35 87.45 C 330.37 89.67 332.48 93.08 331.58 96.96 C 328.04 116.40 323.57 135.70 320.35 155.21 C 319.53 158.92 315.78 161.53 312.04 161.36 C 302.68 161.47 293.32 161.69 283.96 161.84 C 269.01 162.89 253.96 162.10 239.00 163.18 C 230.81 163.32 222.63 163.42 214.44 163.60 C 214.40 167.24 214.41 170.88 214.42 174.53 C 244.62 174.52 274.81 174.56 305.01 174.51 C 308.44 174.07 312.03 175.52 313.73 178.63 C 316.75 183.55 312.84 190.63 307.01 190.55 C 273.67 190.68 240.32 190.58 206.97 190.61 C 202.71 190.93 198.10 187.59 198.30 183.06 C 198.24 149.21 198.30 115.36 198.27 81.50 C 190.85 81.49 183.42 81.53 176.00 81.51 C 171.96 81.85 167.78 78.19 168.31 74.00 M 214.58 103.38 C 214.57 118.07 214.58 132.76 214.58 147.46 C 235.03 147.24 255.46 146.12 275.93 146.21 C 285.84 145.40 295.80 145.62 305.74 145.29 C 308.65 131.36 311.81 117.44 313.93 103.37 C 280.81 103.34 247.69 103.32 214.58 103.38 Z" />
<path fill="#4aba6d" opacity="1.00" d=" M 220.36 196.48 C 226.54 196.33 232.75 196.37 238.94 196.46 C 243.18 196.56 246.51 200.88 246.02 205.00 C 245.92 208.87 242.59 212.41 238.69 212.51 C 232.77 212.61 226.84 212.56 220.92 212.53 C 216.48 212.70 212.71 208.34 213.17 203.99 C 213.15 200.12 216.53 196.68 220.36 196.48 Z" />
<path fill="#4aba6d" opacity="1.00" d=" M 268.38 196.65 C 274.52 196.13 280.72 196.48 286.89 196.43 C 290.11 196.35 293.33 198.32 294.51 201.36 C 295.26 204.50 295.14 208.39 292.40 210.58 C 288.40 213.97 282.76 212.07 277.99 212.55 C 273.39 212.12 267.56 214.08 264.16 209.97 C 260.14 205.77 262.46 197.57 268.38 196.65 Z" />
</g>
</svg>
